# xmcd
#
# Track frame offsets: 
#        150
#        11969
#        24679
#        35813
#        50650
#        62306
#        75016
#        87200
#        100057
#        112774
#        125383
#        136865
#        147460
#        158586
#        170779
#        182171
#        194086
#        206267
#        218454
#        231168
#        244025
#
# Disc length: 3340 seconds
#
# Revision: 0
# Processed by: cddbd v1.5.2PL0 Copyright (c) Steve Scherf et al.
# Submitted via: ExactAudioCopy v0.99pb5
#
DISCID=180d0a15
DTITLE=김용임 - 옛날노래(이미자)
DYEAR=2016
DGENRE=Blues
TTITLE0=동백아가씨
TTITLE1=여자의 일생
TTITLE2=섬마을 선생님
TTITLE3=기러기 아빠
TTITLE4=모정
TTITLE5=들국화
TTITLE6=울어라 열풍아
TTITLE7=지평선은 말이 없다
TTITLE8=잊을수 없는 여인
TTITLE9=진도 아리랑
TTITLE10=그리움은 가슴마다
TTITLE11=삼백리 한려수도
TTITLE12=섬처녀
TTITLE13=유달산아 말해다오
TTITLE14=물새한마리
TTITLE15=흑산도 아가씨
TTITLE16=저강은 알고있다
TTITLE17=정동대감
TTITLE18=황포돛대
TTITLE19=빙점
TTITLE20=아씨
EXTD=
EXTT0=
EXTT1=
EXTT2=
EXTT3=
EXTT4=
EXTT5=
EXTT6=
EXTT7=
EXTT8=
EXTT9=
EXTT10=
EXTT11=
EXTT12=
EXTT13=
EXTT14=
EXTT15=
EXTT16=
EXTT17=
EXTT18=
EXTT19=
EXTT20=
PLAYORDER=
